<svg xmlns="http://www.w3.org/2000/svg" viewBox="0 0 512 512" role="img" aria-labelledby="title desc">
  <title id="title">SwitchOS Maskable Icon</title>
  <desc id="desc">Maskable cyan supply-chain badge for the SwitchOS operator PWA.</desc>
  <defs>
    <linearGradient id="bg" x1="0" y1="0" x2="1" y2="1">
      <stop offset="0%" stop-color="#020617" />
      <stop offset="100%" stop-color="#164e63" />
    </linearGradient>
    <linearGradient id="accent" x1="0" y1="0" x2="1" y2="1">
      <stop offset="0%" stop-color="#a5f3fc" />
      <stop offset="100%" stop-color="#22d3ee" />
    </linearGradient>
  </defs>
  <rect width="512" height="512" rx="160" fill="url(#bg)" />
  <circle cx="256" cy="256" r="150" fill="rgba(34,211,238,0.14)" />
  <path d="M166 184c0-17.7 14.3-32 32-32h116c17.7 0 32 14.3 32 32v46c0 17.7-14.3 32-32 32H198c-17.7 0-32-14.3-32-32v-46Z" fill="url(#accent)" />
  <path d="M148 324c0-26.5 21.5-48 48-48h120c26.5 0 48 21.5 48 48v18c0 9.9-8.1 18-18 18H166c-9.9 0-18-8.1-18-18v-18Z" fill="#67e8f9" />
  <path d="M212 214h88" stroke="#0f172a" stroke-width="18" stroke-linecap="round" opacity="0.65" />
  <path d="M204 316h104" stroke="#083344" stroke-width="18" stroke-linecap="round" opacity="0.72" />
</svg>
